<svg id="Capa_1" data-name="Capa 1" xmlns="http://www.w3.org/2000/svg" viewBox="0 0 66.61 66.25"><defs><style>.cls-1{fill:#325aa5;}.cls-2{fill:#f8e936;}</style></defs><rect class="cls-1" width="66.61" height="66.25"/><polygon class="cls-2" points="33.31 7.32 34.22 10.14 36.58 10.14 34.79 12.03 35.55 14.69 33.31 13.13 31.07 14.69 31.82 12.03 30.04 10.14 32.39 10.14 33.31 7.32"/><polygon class="cls-2" points="33.31 51.56 34.22 54.37 36.58 54.37 34.79 56.26 35.55 58.92 33.31 57.36 31.07 58.92 31.82 56.26 30.04 54.37 32.39 54.37 33.31 51.56"/><polygon class="cls-2" points="43.51 10.25 44.42 13.07 46.78 13.07 44.99 14.95 45.74 17.62 43.51 16.06 41.27 17.62 42.02 14.95 40.23 13.07 42.59 13.07 43.51 10.25"/><polygon class="cls-2" points="50.98 18.73 51.9 21.54 54.26 21.54 52.47 23.43 53.22 26.09 50.98 24.53 48.74 26.09 49.5 23.43 47.71 21.54 50.07 21.54 50.98 18.73"/><polygon class="cls-2" points="53.9 29.2 54.81 32.02 57.17 32.02 55.38 33.91 56.13 36.57 53.9 35.01 51.66 36.57 52.41 33.91 50.62 32.02 52.98 32.02 53.9 29.2"/><polygon class="cls-2" points="51.03 40.64 51.95 43.45 54.3 43.45 52.52 45.34 53.27 48.01 51.03 46.44 48.79 48.01 49.55 45.34 47.76 43.45 50.12 43.45 51.03 40.64"/><polygon class="cls-2" points="43.7 48.4 44.62 51.22 46.97 51.22 45.19 53.1 45.94 55.77 43.7 54.21 41.47 55.77 42.22 53.1 40.43 51.22 42.79 51.22 43.7 48.4"/><polygon class="cls-2" points="23.11 10.25 22.19 13.07 19.84 13.07 21.63 14.95 20.87 17.62 23.11 16.06 25.35 17.62 24.59 14.95 26.38 13.07 24.03 13.07 23.11 10.25"/><polygon class="cls-2" points="15.63 18.73 14.71 21.54 12.36 21.54 14.15 23.43 13.39 26.09 15.63 24.53 17.87 26.09 17.11 23.43 18.9 21.54 16.55 21.54 15.63 18.73"/><polygon class="cls-2" points="12.72 29.2 11.8 32.02 9.45 32.02 11.24 33.91 10.48 36.57 12.72 35.01 14.96 36.57 14.2 33.91 15.99 32.02 13.64 32.02 12.72 29.2"/><polygon class="cls-2" points="15.58 40.64 14.66 43.45 12.31 43.45 14.1 45.34 13.34 48.01 15.58 46.44 17.82 48.01 17.07 45.34 18.85 43.45 16.5 43.45 15.58 40.64"/><polygon class="cls-2" points="22.91 48.4 21.99 51.22 19.64 51.22 21.43 53.1 20.67 55.77 22.91 54.21 25.15 55.77 24.39 53.1 26.18 51.22 23.83 51.22 22.91 48.4"/></svg>