<svg id="Capa_1" data-name="Capa 1" xmlns="http://www.w3.org/2000/svg" xmlns:xlink="http://www.w3.org/1999/xlink" viewBox="0 0 66.61 66.25"><defs><style>.cls-1{fill:#fff;}.cls-2{clip-path:url(#clip-path);}.cls-3{fill:#2f4e7c;}.cls-4{fill:#b7243a;}</style><clipPath id="clip-path"><rect class="cls-1" width="66.61" height="66.25"/></clipPath></defs><rect class="cls-1" width="66.61" height="66.25"/><g class="cls-2"><rect class="cls-3" width="50.01" height="35.71"/><polygon class="cls-1" points="8.45 5.18 9.06 6.61 10.42 6.61 9.44 7.57 9.67 8.92 8.45 8.28 7.23 8.92 7.47 7.57 6.48 6.61 7.84 6.61 8.45 5.18"/><polygon class="cls-1" points="16.67 5.18 17.28 6.61 18.64 6.61 17.65 7.57 17.89 8.92 16.67 8.28 15.45 8.92 15.69 7.57 14.7 6.61 16.06 6.61 16.67 5.18"/><polygon class="cls-1" points="24.89 5.18 25.5 6.61 26.86 6.61 25.87 7.57 26.11 8.92 24.89 8.28 23.67 8.92 23.91 7.57 22.92 6.61 24.28 6.61 24.89 5.18"/><polygon class="cls-1" points="33.11 5.18 33.72 6.61 35.08 6.61 34.09 7.57 34.32 8.92 33.11 8.28 31.89 8.92 32.12 7.57 31.14 6.61 32.5 6.61 33.11 5.18"/><polygon class="cls-1" points="41.33 5.18 41.94 6.61 43.3 6.61 42.31 7.57 42.54 8.92 41.33 8.28 40.11 8.92 40.34 7.57 39.36 6.61 40.72 6.61 41.33 5.18"/><polygon class="cls-1" points="8.45 12.22 9.06 13.65 10.42 13.65 9.44 14.61 9.67 15.96 8.45 15.32 7.23 15.96 7.47 14.61 6.48 13.65 7.84 13.65 8.45 12.22"/><polygon class="cls-1" points="16.67 12.22 17.28 13.65 18.64 13.65 17.65 14.61 17.89 15.96 16.67 15.32 15.45 15.96 15.69 14.61 14.7 13.65 16.06 13.65 16.67 12.22"/><polygon class="cls-1" points="24.89 12.22 25.5 13.65 26.86 13.65 25.87 14.61 26.11 15.96 24.89 15.32 23.67 15.96 23.91 14.61 22.92 13.65 24.28 13.65 24.89 12.22"/><polygon class="cls-1" points="33.11 12.22 33.72 13.65 35.08 13.65 34.09 14.61 34.32 15.96 33.11 15.32 31.89 15.96 32.12 14.61 31.14 13.65 32.5 13.65 33.11 12.22"/><polygon class="cls-1" points="41.33 12.22 41.94 13.65 43.3 13.65 42.31 14.61 42.54 15.96 41.33 15.32 40.11 15.96 40.34 14.61 39.36 13.65 40.72 13.65 41.33 12.22"/><polygon class="cls-1" points="8.45 19.26 9.06 20.69 10.42 20.69 9.44 21.65 9.67 23.01 8.45 22.37 7.23 23.01 7.47 21.65 6.48 20.69 7.84 20.69 8.45 19.26"/><polygon class="cls-1" points="16.67 19.26 17.28 20.69 18.64 20.69 17.65 21.65 17.89 23.01 16.67 22.37 15.45 23.01 15.69 21.65 14.7 20.69 16.06 20.69 16.67 19.26"/><polygon class="cls-1" points="24.89 19.26 25.5 20.69 26.86 20.69 25.87 21.65 26.11 23.01 24.89 22.37 23.67 23.01 23.91 21.65 22.92 20.69 24.28 20.69 24.89 19.26"/><polygon class="cls-1" points="33.11 19.26 33.72 20.69 35.08 20.69 34.09 21.65 34.32 23.01 33.11 22.37 31.89 23.01 32.12 21.65 31.14 20.69 32.5 20.69 33.11 19.26"/><polygon class="cls-1" points="41.33 19.26 41.94 20.69 43.3 20.69 42.31 21.65 42.54 23.01 41.33 22.37 40.11 23.01 40.34 21.65 39.36 20.69 40.72 20.69 41.33 19.26"/><polygon class="cls-1" points="8.45 26.3 9.06 27.73 10.42 27.73 9.44 28.69 9.67 30.05 8.45 29.41 7.23 30.05 7.47 28.69 6.48 27.73 7.84 27.73 8.45 26.3"/><polygon class="cls-1" points="16.67 26.3 17.28 27.73 18.64 27.73 17.65 28.69 17.89 30.05 16.67 29.41 15.45 30.05 15.69 28.69 14.7 27.73 16.06 27.73 16.67 26.3"/><polygon class="cls-1" points="24.89 26.3 25.5 27.73 26.86 27.73 25.87 28.69 26.11 30.05 24.89 29.41 23.67 30.05 23.91 28.69 22.92 27.73 24.28 27.73 24.89 26.3"/><polygon class="cls-1" points="33.11 26.3 33.72 27.73 35.08 27.73 34.09 28.69 34.32 30.05 33.11 29.41 31.89 30.05 32.12 28.69 31.14 27.73 32.5 27.73 33.11 26.3"/><polygon class="cls-1" points="41.33 26.3 41.94 27.73 43.3 27.73 42.31 28.69 42.54 30.05 41.33 29.41 40.11 30.05 40.34 28.69 39.36 27.73 40.72 27.73 41.33 26.3"/><polygon class="cls-1" points="4.34 1.66 4.95 3.09 6.31 3.09 5.33 4.05 5.56 5.4 4.34 4.76 3.13 5.4 3.36 4.05 2.37 3.09 3.73 3.09 4.34 1.66"/><polygon class="cls-1" points="12.56 1.66 13.17 3.09 14.53 3.09 13.54 4.05 13.78 5.4 12.56 4.76 11.34 5.4 11.58 4.05 10.59 3.09 11.95 3.09 12.56 1.66"/><polygon class="cls-1" points="20.78 1.66 21.39 3.09 22.75 3.09 21.76 4.05 22 5.4 20.78 4.76 19.56 5.4 19.8 4.05 18.81 3.09 20.17 3.09 20.78 1.66"/><polygon class="cls-1" points="29 1.66 29.61 3.09 30.97 3.09 29.98 4.05 30.21 5.4 29 4.76 27.78 5.4 28.01 4.05 27.03 3.09 28.39 3.09 29 1.66"/><polygon class="cls-1" points="37.22 1.66 37.83 3.09 39.19 3.09 38.2 4.05 38.43 5.4 37.22 4.76 36 5.4 36.23 4.05 35.25 3.09 36.61 3.09 37.22 1.66"/><polygon class="cls-1" points="45.44 1.66 46.04 3.09 47.4 3.09 46.42 4.05 46.65 5.4 45.44 4.76 44.22 5.4 44.45 4.05 43.47 3.09 44.83 3.09 45.44 1.66"/><polygon class="cls-1" points="4.34 8.7 4.95 10.13 6.31 10.13 5.33 11.09 5.56 12.44 4.34 11.8 3.13 12.44 3.36 11.09 2.37 10.13 3.73 10.13 4.34 8.7"/><polygon class="cls-1" points="12.56 8.7 13.17 10.13 14.53 10.13 13.54 11.09 13.78 12.44 12.56 11.8 11.34 12.44 11.58 11.09 10.59 10.13 11.95 10.13 12.56 8.7"/><polygon class="cls-1" points="20.78 8.7 21.39 10.13 22.75 10.13 21.76 11.09 22 12.44 20.78 11.8 19.56 12.44 19.8 11.09 18.81 10.13 20.17 10.13 20.78 8.7"/><polygon class="cls-1" points="29 8.7 29.61 10.13 30.97 10.13 29.98 11.09 30.21 12.44 29 11.8 27.78 12.44 28.01 11.09 27.03 10.13 28.39 10.13 29 8.7"/><polygon class="cls-1" points="37.22 8.7 37.83 10.13 39.19 10.13 38.2 11.09 38.43 12.44 37.22 11.8 36 12.44 36.23 11.09 35.25 10.13 36.61 10.13 37.22 8.7"/><polygon class="cls-1" points="45.44 8.7 46.04 10.13 47.4 10.13 46.42 11.09 46.65 12.44 45.44 11.8 44.22 12.44 44.45 11.09 43.47 10.13 44.83 10.13 45.44 8.7"/><polygon class="cls-1" points="4.34 15.74 4.95 17.17 6.31 17.17 5.33 18.13 5.56 19.48 4.34 18.85 3.13 19.48 3.36 18.13 2.37 17.17 3.73 17.17 4.34 15.74"/><polygon class="cls-1" points="12.56 15.74 13.17 17.17 14.53 17.17 13.54 18.13 13.78 19.48 12.56 18.85 11.34 19.48 11.58 18.13 10.59 17.17 11.95 17.17 12.56 15.74"/><polygon class="cls-1" points="20.78 15.74 21.39 17.17 22.75 17.17 21.76 18.13 22 19.48 20.78 18.85 19.56 19.48 19.8 18.13 18.81 17.17 20.17 17.17 20.78 15.74"/><polygon class="cls-1" points="29 15.74 29.61 17.17 30.97 17.17 29.98 18.13 30.21 19.48 29 18.85 27.78 19.48 28.01 18.13 27.03 17.17 28.39 17.17 29 15.74"/><polygon class="cls-1" points="37.22 15.74 37.83 17.17 39.19 17.17 38.2 18.13 38.43 19.48 37.22 18.85 36 19.48 36.23 18.13 35.25 17.17 36.61 17.17 37.22 15.74"/><polygon class="cls-1" points="45.44 15.74 46.04 17.17 47.4 17.17 46.42 18.13 46.65 19.48 45.44 18.85 44.22 19.48 44.45 18.13 43.47 17.17 44.83 17.17 45.44 15.74"/><polygon class="cls-1" points="4.34 22.78 4.95 24.21 6.31 24.21 5.33 25.17 5.56 26.53 4.34 25.89 3.13 26.53 3.36 25.17 2.37 24.21 3.73 24.21 4.34 22.78"/><polygon class="cls-1" points="12.56 22.78 13.17 24.21 14.53 24.21 13.54 25.17 13.78 26.53 12.56 25.89 11.34 26.53 11.58 25.17 10.59 24.21 11.95 24.21 12.56 22.78"/><polygon class="cls-1" points="20.78 22.78 21.39 24.21 22.75 24.21 21.76 25.17 22 26.53 20.78 25.89 19.56 26.53 19.8 25.17 18.81 24.21 20.17 24.21 20.78 22.78"/><polygon class="cls-1" points="29 22.78 29.61 24.21 30.97 24.21 29.98 25.17 30.21 26.53 29 25.89 27.78 26.53 28.01 25.17 27.03 24.21 28.39 24.21 29 22.78"/><polygon class="cls-1" points="37.22 22.78 37.83 24.21 39.19 24.21 38.2 25.17 38.43 26.53 37.22 25.89 36 26.53 36.23 25.17 35.25 24.21 36.61 24.21 37.22 22.78"/><polygon class="cls-1" points="45.44 22.78 46.04 24.21 47.4 24.21 46.42 25.17 46.65 26.53 45.44 25.89 44.22 26.53 44.45 25.17 43.47 24.21 44.83 24.21 45.44 22.78"/><polygon class="cls-1" points="4.34 29.83 4.95 31.26 6.31 31.26 5.33 32.22 5.56 33.57 4.34 32.93 3.13 33.57 3.36 32.22 2.37 31.26 3.73 31.26 4.34 29.83"/><polygon class="cls-1" points="12.56 29.83 13.17 31.26 14.53 31.26 13.54 32.22 13.78 33.57 12.56 32.93 11.34 33.57 11.58 32.22 10.59 31.26 11.95 31.26 12.56 29.83"/><polygon class="cls-1" points="20.78 29.83 21.39 31.26 22.75 31.26 21.76 32.22 22 33.57 20.78 32.93 19.56 33.57 19.8 32.22 18.81 31.26 20.17 31.26 20.78 29.83"/><polygon class="cls-1" points="29 29.83 29.61 31.26 30.97 31.26 29.98 32.22 30.21 33.57 29 32.93 27.78 33.57 28.01 32.22 27.03 31.26 28.39 31.26 29 29.83"/><polygon class="cls-1" points="37.22 29.83 37.83 31.26 39.19 31.26 38.2 32.22 38.43 33.57 37.22 32.93 36 33.57 36.23 32.22 35.25 31.26 36.61 31.26 37.22 29.83"/><polygon class="cls-1" points="45.44 29.83 46.04 31.26 47.4 31.26 46.42 32.22 46.65 33.57 45.44 32.93 44.22 33.57 44.45 32.22 43.47 31.26 44.83 31.26 45.44 29.83"/><rect class="cls-4" x="50.01" width="16.61" height="5.18" transform="translate(116.62 5.18) rotate(180)"/><rect class="cls-4" x="50.01" y="30.53" width="16.61" height="5.18" transform="translate(116.62 66.25) rotate(180)"/><rect class="cls-4" y="40.71" width="66.61" height="5.18" transform="translate(66.61 86.6) rotate(180)"/><rect class="cls-4" y="50.89" width="66.61" height="5.18" transform="translate(66.61 106.96) rotate(180)"/><rect class="cls-4" y="61.07" width="66.61" height="5.18" transform="translate(66.61 127.32) rotate(180)"/><rect class="cls-4" x="50.01" y="20.36" width="16.61" height="5.18" transform="translate(116.62 45.89) rotate(180)"/><rect class="cls-4" x="50.01" y="10.18" width="16.61" height="5.18" transform="translate(116.62 25.53) rotate(180)"/></g></svg>